<svg width="502" height="98" viewBox="0 0 502 98" fill="none" xmlns="http://www.w3.org/2000/svg">
<circle cx="278" cy="4" r="4" fill="#908D96"/>
<circle cx="398" cy="4" r="4" fill="#908D96"/>
<circle cx="278" cy="40" r="4" fill="#908D96"/>
<circle cx="398" cy="40" r="4" fill="#908D96"/>
<circle cx="278" cy="22" r="4" fill="#908D96"/>
<circle cx="398" cy="22" r="4" fill="#908D96"/>
<circle cx="278" cy="58" r="4" fill="#908D96"/>
<circle cx="278" cy="76" r="4" fill="#908D96"/>
<circle cx="278" cy="94" r="4" fill="#908D96"/>
<circle cx="398" cy="58" r="4" fill="#908D96"/>
<circle cx="398" cy="76" r="4" fill="#908D96"/>
<circle cx="398" cy="94" r="4" fill="#908D96"/>
<circle cx="298" cy="4" r="4" fill="#908D96"/>
<circle cx="418" cy="4" r="4" fill="#908D96"/>
<circle cx="298" cy="40" r="4" fill="#908D96"/>
<circle cx="418" cy="40" r="4" fill="#908D96"/>
<circle cx="298" cy="22" r="4" fill="#908D96"/>
<circle cx="418" cy="22" r="4" fill="#908D96"/>
<circle cx="298" cy="58" r="4" fill="#908D96"/>
<circle cx="298" cy="76" r="4" fill="#908D96"/>
<circle cx="298" cy="94" r="4" fill="#908D96"/>
<circle cx="418" cy="58" r="4" fill="#908D96"/>
<circle cx="418" cy="76" r="4" fill="#908D96"/>
<circle cx="418" cy="94" r="4" fill="#908D96"/>
<circle cx="318" cy="4" r="4" fill="#908D96"/>
<circle cx="438" cy="4" r="4" fill="#908D96"/>
<circle cx="358" cy="4" r="4" fill="#908D96"/>
<circle cx="478" cy="4" r="4" fill="#908D96"/>
<circle cx="318" cy="40" r="4" fill="#908D96"/>
<circle cx="438" cy="40" r="4" fill="#908D96"/>
<circle cx="358" cy="40" r="4" fill="#908D96"/>
<circle cx="478" cy="40" r="4" fill="#908D96"/>
<circle cx="318" cy="22" r="4" fill="#908D96"/>
<circle cx="438" cy="22" r="4" fill="#908D96"/>
<circle cx="358" cy="22" r="4" fill="#908D96"/>
<circle cx="478" cy="22" r="4" fill="#908D96"/>
<circle cx="318" cy="58" r="4" fill="#908D96"/>
<circle cx="318" cy="76" r="4" fill="#908D96"/>
<circle cx="318" cy="94" r="4" fill="#908D96"/>
<circle cx="438" cy="58" r="4" fill="#908D96"/>
<circle cx="438" cy="76" r="4" fill="#908D96"/>
<circle cx="438" cy="94" r="4" fill="#908D96"/>
<circle cx="358" cy="58" r="4" fill="#908D96"/>
<circle cx="358" cy="76" r="4" fill="#908D96"/>
<circle cx="358" cy="94" r="4" fill="#908D96"/>
<circle cx="478" cy="58" r="4" fill="#908D96"/>
<circle cx="478" cy="76" r="4" fill="#908D96"/>
<circle cx="478" cy="94" r="4" fill="#908D96"/>
<circle cx="338" cy="4" r="4" fill="#908D96"/>
<circle cx="458" cy="4" r="4" fill="#908D96"/>
<circle cx="378" cy="4" r="4" fill="#908D96"/>
<circle cx="498" cy="4" r="4" fill="#908D96"/>
<circle cx="338" cy="40" r="4" fill="#908D96"/>
<circle cx="458" cy="40" r="4" fill="#908D96"/>
<circle cx="378" cy="40" r="4" fill="#908D96"/>
<circle cx="498" cy="40" r="4" fill="#908D96"/>
<circle cx="338" cy="22" r="4" fill="#908D96"/>
<circle cx="458" cy="22" r="4" fill="#908D96"/>
<circle cx="378" cy="22" r="4" fill="#908D96"/>
<circle cx="498" cy="22" r="4" fill="#908D96"/>
<circle cx="338" cy="58" r="4" fill="#908D96"/>
<circle cx="338" cy="76" r="4" fill="#908D96"/>
<circle cx="338" cy="94" r="4" fill="#908D96"/>
<circle cx="458" cy="58" r="4" fill="#908D96"/>
<circle cx="458" cy="76" r="4" fill="#908D96"/>
<circle cx="458" cy="94" r="4" fill="#908D96"/>
<circle cx="378" cy="58" r="4" fill="#908D96"/>
<circle cx="378" cy="76" r="4" fill="#908D96"/>
<circle cx="378" cy="94" r="4" fill="#908D96"/>
<circle cx="498" cy="58" r="4" fill="#908D96"/>
<circle cx="498" cy="76" r="4" fill="#908D96"/>
<circle cx="498" cy="94" r="4" fill="#908D96"/>
<circle cx="4" cy="4" r="4" fill="#908D96"/>
<circle cx="124" cy="4" r="4" fill="#908D96"/>
<circle cx="4" cy="40" r="4" fill="#908D96"/>
<circle cx="124" cy="40" r="4" fill="#908D96"/>
<circle cx="4" cy="22" r="4" fill="#908D96"/>
<circle cx="124" cy="22" r="4" fill="#908D96"/>
<circle cx="4" cy="58" r="4" fill="#908D96"/>
<circle cx="4" cy="76" r="4" fill="#908D96"/>
<circle cx="4" cy="94" r="4" fill="#908D96"/>
<circle cx="124" cy="58" r="4" fill="#908D96"/>
<circle cx="124" cy="76" r="4" fill="#908D96"/>
<circle cx="124" cy="94" r="4" fill="#908D96"/>
<circle cx="24" cy="4" r="4" fill="#908D96"/>
<circle cx="144" cy="4" r="4" fill="#908D96"/>
<circle cx="24" cy="40" r="4" fill="#908D96"/>
<circle cx="144" cy="40" r="4" fill="#908D96"/>
<circle cx="24" cy="22" r="4" fill="#908D96"/>
<circle cx="144" cy="22" r="4" fill="#908D96"/>
<circle cx="24" cy="58" r="4" fill="#908D96"/>
<circle cx="24" cy="76" r="4" fill="#908D96"/>
<circle cx="24" cy="94" r="4" fill="#908D96"/>
<circle cx="144" cy="58" r="4" fill="#908D96"/>
<circle cx="144" cy="76" r="4" fill="#908D96"/>
<circle cx="144" cy="94" r="4" fill="#908D96"/>
<circle cx="44" cy="4" r="4" fill="#908D96"/>
<circle cx="164" cy="4" r="4" fill="#908D96"/>
<circle cx="84" cy="4" r="4" fill="#908D96"/>
<circle cx="204" cy="4" r="4" fill="#908D96"/>
<circle cx="44" cy="40" r="4" fill="#908D96"/>
<circle cx="164" cy="40" r="4" fill="#908D96"/>
<circle cx="84" cy="40" r="4" fill="#908D96"/>
<circle cx="204" cy="40" r="4" fill="#908D96"/>
<circle cx="44" cy="22" r="4" fill="#908D96"/>
<circle cx="164" cy="22" r="4" fill="#908D96"/>
<circle cx="84" cy="22" r="4" fill="#908D96"/>
<circle cx="204" cy="22" r="4" fill="#908D96"/>
<circle cx="44" cy="58" r="4" fill="#908D96"/>
<circle cx="44" cy="76" r="4" fill="#908D96"/>
<circle cx="44" cy="94" r="4" fill="#908D96"/>
<circle cx="164" cy="58" r="4" fill="#908D96"/>
<circle cx="164" cy="76" r="4" fill="#908D96"/>
<circle cx="164" cy="94" r="4" fill="#908D96"/>
<circle cx="84" cy="58" r="4" fill="#908D96"/>
<circle cx="84" cy="76" r="4" fill="#908D96"/>
<circle cx="84" cy="94" r="4" fill="#908D96"/>
<circle cx="204" cy="58" r="4" fill="#908D96"/>
<circle cx="204" cy="76" r="4" fill="#908D96"/>
<circle cx="204" cy="94" r="4" fill="#908D96"/>
<circle cx="64" cy="4" r="4" fill="#908D96"/>
<circle cx="184" cy="4" r="4" fill="#908D96"/>
<circle cx="104" cy="4" r="4" fill="#908D96"/>
<circle cx="224" cy="4" r="4" fill="#908D96"/>
<circle cx="64" cy="40" r="4" fill="#908D96"/>
<circle cx="184" cy="40" r="4" fill="#908D96"/>
<circle cx="104" cy="40" r="4" fill="#908D96"/>
<circle cx="224" cy="40" r="4" fill="#908D96"/>
<circle cx="64" cy="22" r="4" fill="#908D96"/>
<circle cx="184" cy="22" r="4" fill="#908D96"/>
<circle cx="104" cy="22" r="4" fill="#908D96"/>
<circle cx="224" cy="22" r="4" fill="#908D96"/>
<circle cx="64" cy="58" r="4" fill="#908D96"/>
<circle cx="64" cy="76" r="4" fill="#908D96"/>
<circle cx="64" cy="94" r="4" fill="#908D96"/>
<circle cx="184" cy="58" r="4" fill="#908D96"/>
<circle cx="184" cy="76" r="4" fill="#908D96"/>
<circle cx="184" cy="94" r="4" fill="#908D96"/>
<circle cx="104" cy="58" r="4" fill="#908D96"/>
<circle cx="104" cy="76" r="4" fill="#908D96"/>
<circle cx="104" cy="94" r="4" fill="#908D96"/>
<circle cx="224" cy="58" r="4" fill="#908D96"/>
<circle cx="224" cy="76" r="4" fill="#908D96"/>
<circle cx="224" cy="94" r="4" fill="#908D96"/>
</svg>
