<svg width="128" height="36" viewBox="0 0 128 36" fill="none" xmlns="http://www.w3.org/2000/svg">
<path d="M0.8 21.28C1.25333 20.6 1.62667 19.9667 1.92 19.38C2.22667 18.7933 2.52 18.1133 2.8 17.34C3.74667 17.8867 4.84667 18.3133 6.1 18.62C7.35333 18.9267 8.52 19.08 9.6 19.08C10.7067 19.08 11.4867 18.9867 11.94 18.8C12.3933 18.6 12.62 18.3867 12.62 18.16C12.62 17.3467 11.38 16.94 8.9 16.94C6.18 16.94 4.20667 16.66 2.98 16.1C1.75333 15.5267 1.14 14.6067 1.14 13.34C1.14 11.54 1.88667 10.2133 3.38 9.36C4.87333 8.50667 6.81333 8.08 9.2 8.08C10.5867 8.08 12.0067 8.26 13.46 8.62C14.9267 8.96667 16.2467 9.44667 17.42 10.06C17.0333 10.94 16.6267 12.0133 16.2 13.28C16.12 13.5467 16.0533 13.7467 16 13.88C15.32 13.3333 14.2933 12.88 12.92 12.52C11.5467 12.1467 10.3333 11.96 9.28 11.96C8.01333 11.96 7.16 12.0467 6.72 12.22C6.28 12.38 6.06 12.62 6.06 12.94C6.06 13.26 6.36 13.52 6.96 13.72C7.57333 13.9067 8.45333 14 9.6 14C12.4267 14 14.48 14.3267 15.76 14.98C17.04 15.62 17.68 16.6067 17.68 17.94C17.68 19.8067 17 21.1533 15.64 21.98C14.28 22.7933 12.22 23.2 9.46 23.2C7.98 23.2 6.47333 23.04 4.94 22.72C3.40667 22.3867 2.02667 21.9067 0.8 21.28ZM36.0366 8.48C35.9432 10.7333 35.8966 13.1533 35.8966 15.74C35.8966 18.3267 35.9432 20.7467 36.0366 23H31.3366V17.56H23.9766V23H19.2766C19.3832 20.4133 19.4366 17.9933 19.4366 15.74C19.4366 13.4867 19.3832 11.0667 19.2766 8.48H23.9766V13.92H31.3366V8.48H36.0366ZM49.4759 8.46H54.4359V16.42C54.4093 18.38 53.7359 20 52.4159 21.28C51.1093 22.56 48.9026 23.2 45.7959 23.2C42.6493 23.2 40.4959 22.5933 39.3359 21.38C38.1759 20.1533 37.6093 18.5467 37.6359 16.56V8.46H42.5959V16.24C42.5959 16.8267 42.6359 17.3067 42.7159 17.68C42.8093 18.04 43.0893 18.38 43.5559 18.7C44.0359 19.02 44.8026 19.18 45.8559 19.18C47.0026 19.18 47.8426 19.02 48.3759 18.7C48.9093 18.3667 49.2226 18 49.3159 17.6C49.4226 17.2 49.4759 16.6867 49.4759 16.06V8.46ZM62.6744 19.06C63.4344 19.0467 65.3944 18.9933 68.5544 18.9C68.9544 18.8867 69.421 18.8667 69.9544 18.84C70.4877 18.8133 71.081 18.7933 71.7344 18.78C71.641 19.4067 71.581 20.0333 71.5544 20.66C71.541 21.2867 71.5344 22.0667 71.5344 23H56.1944V18.54C56.9277 18.1267 57.7277 17.62 58.5944 17.02C59.461 16.4067 60.581 15.6067 61.9544 14.62C63.2344 13.6867 64.161 13.02 64.7344 12.62C63.681 12.6333 61.5677 12.7067 58.3944 12.84C57.301 12.8933 56.5677 12.9267 56.1944 12.94C56.1944 11.9533 56.181 11.1267 56.1544 10.46C56.141 9.79333 56.101 9.13333 56.0344 8.48H71.5344V12.96C70.8277 13.4267 69.521 14.3333 67.6144 15.68C65.481 17.2 63.8344 18.3267 62.6744 19.06ZM85.1791 8.46H90.1391V16.42C90.1124 18.38 89.4391 20 88.1191 21.28C86.8124 22.56 84.6057 23.2 81.4991 23.2C78.3524 23.2 76.1991 22.5933 75.0391 21.38C73.8791 20.1533 73.3124 18.5467 73.3391 16.56V8.46H78.2991V16.24C78.2991 16.8267 78.3391 17.3067 78.4191 17.68C78.5124 18.04 78.7924 18.38 79.2591 18.7C79.7391 19.02 80.5057 19.18 81.5591 19.18C82.7057 19.18 83.5457 19.02 84.0791 18.7C84.6124 18.3667 84.9257 18 85.0191 17.6C85.1257 17.2 85.1791 16.6867 85.1791 16.06V8.46ZM108.918 12.68C106.824 12.6133 104.791 12.5733 102.818 12.56V23H97.8175V12.56C95.8308 12.5733 93.8042 12.6133 91.7375 12.68V8.48H108.918V12.68ZM121.545 23C121.292 22.24 120.952 21.2867 120.525 20.14H114.145L113.145 23H108.125L113.725 8.48H121.085L126.725 23H121.545ZM119.385 17.02C118.878 15.62 118.358 14.22 117.825 12.82L117.345 11.52C116.878 12.7333 116.192 14.5667 115.285 17.02H119.385Z" fill="white"/>
<path d="M0.89 34V26.9H1.59V34H0.89ZM7.67047 34V26.9H8.37047V33.38H12.4705V34H7.67047ZM20.3878 34.05C19.8278 34.05 19.3545 33.95 18.9678 33.75C18.5811 33.55 18.2745 33.2833 18.0478 32.95C17.8211 32.61 17.6545 32.2267 17.5478 31.8C17.4478 31.3733 17.3978 30.9333 17.3978 30.48V26.9H18.0878V30.48C18.0878 30.8467 18.1245 31.2067 18.1978 31.56C18.2778 31.9133 18.4045 32.23 18.5778 32.51C18.7511 32.79 18.9845 33.0133 19.2778 33.18C19.5711 33.34 19.9378 33.42 20.3778 33.42C20.8311 33.42 21.2045 33.3367 21.4978 33.17C21.7978 32.9967 22.0311 32.77 22.1978 32.49C22.3711 32.21 22.4945 31.8967 22.5678 31.55C22.6411 31.1967 22.6778 30.84 22.6778 30.48V26.9H23.3778V30.48C23.3778 30.9533 23.3245 31.4067 23.2178 31.84C23.1111 32.2733 22.9378 32.6533 22.6978 32.98C22.4645 33.3067 22.1578 33.5667 21.7778 33.76C21.3978 33.9533 20.9345 34.05 20.3878 34.05ZM33.4966 28.23C33.3966 28.1167 33.28 28.0167 33.1466 27.93C33.0133 27.8367 32.8633 27.7567 32.6966 27.69C32.53 27.6233 32.35 27.57 32.1566 27.53C31.97 27.49 31.77 27.47 31.5566 27.47C30.9366 27.47 30.48 27.59 30.1866 27.83C29.9 28.0633 29.7566 28.3833 29.7566 28.79C29.7566 29.07 29.8233 29.29 29.9566 29.45C30.0966 29.61 30.3133 29.74 30.6066 29.84C30.9 29.94 31.2733 30.0433 31.7266 30.15C32.2333 30.2567 32.67 30.3833 33.0366 30.53C33.4033 30.6767 33.6866 30.8767 33.8866 31.13C34.0866 31.3767 34.1866 31.7133 34.1866 32.14C34.1866 32.4667 34.1233 32.75 33.9966 32.99C33.87 33.23 33.6933 33.43 33.4666 33.59C33.24 33.75 32.97 33.87 32.6566 33.95C32.3433 34.0233 32 34.06 31.6266 34.06C31.26 34.06 30.9066 34.0233 30.5666 33.95C30.2333 33.87 29.9166 33.7567 29.6166 33.61C29.3166 33.4567 29.0366 33.2633 28.7766 33.03L29.1266 32.46C29.2533 32.5933 29.4033 32.72 29.5766 32.84C29.7566 32.9533 29.9533 33.0567 30.1666 33.15C30.3866 33.2433 30.62 33.3167 30.8666 33.37C31.12 33.4167 31.38 33.44 31.6466 33.44C32.2133 33.44 32.6533 33.3367 32.9666 33.13C33.2866 32.9233 33.4466 32.6167 33.4466 32.21C33.4466 31.9167 33.3666 31.6833 33.2066 31.51C33.0466 31.33 32.8066 31.1833 32.4866 31.07C32.1666 30.9567 31.7733 30.8467 31.3066 30.74C30.8133 30.6267 30.3966 30.5 30.0566 30.36C29.7166 30.22 29.46 30.0367 29.2866 29.81C29.12 29.5767 29.0366 29.27 29.0366 28.89C29.0366 28.45 29.1433 28.08 29.3566 27.78C29.5766 27.4733 29.8766 27.2433 30.2566 27.09C30.6366 26.93 31.0733 26.85 31.5666 26.85C31.88 26.85 32.17 26.8833 32.4366 26.95C32.71 27.01 32.96 27.1 33.1866 27.22C33.42 27.34 33.6366 27.49 33.8366 27.67L33.4966 28.23ZM43.8709 28.23C43.7709 28.1167 43.6542 28.0167 43.5209 27.93C43.3875 27.8367 43.2375 27.7567 43.0709 27.69C42.9042 27.6233 42.7242 27.57 42.5309 27.53C42.3442 27.49 42.1442 27.47 41.9309 27.47C41.3109 27.47 40.8542 27.59 40.5609 27.83C40.2742 28.0633 40.1309 28.3833 40.1309 28.79C40.1309 29.07 40.1975 29.29 40.3309 29.45C40.4709 29.61 40.6875 29.74 40.9809 29.84C41.2742 29.94 41.6475 30.0433 42.1009 30.15C42.6075 30.2567 43.0442 30.3833 43.4109 30.53C43.7775 30.6767 44.0609 30.8767 44.2609 31.13C44.4609 31.3767 44.5609 31.7133 44.5609 32.14C44.5609 32.4667 44.4975 32.75 44.3709 32.99C44.2442 33.23 44.0675 33.43 43.8409 33.59C43.6142 33.75 43.3442 33.87 43.0309 33.95C42.7175 34.0233 42.3742 34.06 42.0009 34.06C41.6342 34.06 41.2809 34.0233 40.9409 33.95C40.6075 33.87 40.2909 33.7567 39.9909 33.61C39.6909 33.4567 39.4109 33.2633 39.1509 33.03L39.5009 32.46C39.6275 32.5933 39.7775 32.72 39.9509 32.84C40.1309 32.9533 40.3275 33.0567 40.5409 33.15C40.7609 33.2433 40.9942 33.3167 41.2409 33.37C41.4942 33.4167 41.7542 33.44 42.0209 33.44C42.5875 33.44 43.0275 33.3367 43.3409 33.13C43.6609 32.9233 43.8209 32.6167 43.8209 32.21C43.8209 31.9167 43.7409 31.6833 43.5809 31.51C43.4209 31.33 43.1809 31.1833 42.8609 31.07C42.5409 30.9567 42.1475 30.8467 41.6809 30.74C41.1875 30.6267 40.7709 30.5 40.4309 30.36C40.0909 30.22 39.8342 30.0367 39.6609 29.81C39.4942 29.5767 39.4109 29.27 39.4109 28.89C39.4109 28.45 39.5175 28.08 39.7309 27.78C39.9509 27.4733 40.2509 27.2433 40.6309 27.09C41.0109 26.93 41.4475 26.85 41.9409 26.85C42.2542 26.85 42.5442 26.8833 42.8109 26.95C43.0842 27.01 43.3342 27.1 43.5609 27.22C43.7942 27.34 44.0109 27.49 44.2109 27.67L43.8709 28.23ZM55.1253 27.52H52.5953V34H51.8953V27.52H49.3653V26.9H55.1253V27.52ZM60.4888 34V26.9H63.4888C63.7955 26.9 64.0755 26.9633 64.3288 27.09C64.5822 27.2167 64.8022 27.39 64.9888 27.61C65.1822 27.8233 65.3288 28.0633 65.4288 28.33C65.5355 28.59 65.5888 28.8567 65.5888 29.13C65.5888 29.47 65.5222 29.79 65.3888 30.09C65.2622 30.39 65.0788 30.6433 64.8388 30.85C64.6055 31.0567 64.3288 31.1933 64.0088 31.26L65.7488 34H64.9588L63.2888 31.38H61.1888V34H60.4888ZM61.1888 30.76H63.5088C63.7888 30.76 64.0322 30.6833 64.2388 30.53C64.4455 30.3767 64.6055 30.1767 64.7188 29.93C64.8322 29.6767 64.8888 29.41 64.8888 29.13C64.8888 28.8433 64.8222 28.58 64.6888 28.34C64.5622 28.0933 64.3888 27.8967 64.1688 27.75C63.9555 27.5967 63.7155 27.52 63.4488 27.52H61.1888V30.76ZM73.4927 26.9H74.0827L77.0327 34H76.2927L75.3727 31.78H72.1827L71.2727 34H70.5227L73.4927 26.9ZM75.2127 31.23L73.7827 27.72L72.3327 31.23H75.2127ZM86.707 27.52H84.177V34H83.477V27.52H80.947V26.9H86.707V27.52ZM92.0705 34V26.9H92.7705V34H92.0705ZM101.711 34.05C101.211 34.05 100.758 33.95 100.351 33.75C99.9443 33.55 99.5943 33.28 99.3009 32.94C99.0076 32.5933 98.7809 32.2067 98.6209 31.78C98.4609 31.3467 98.3809 30.9033 98.3809 30.45C98.3809 29.9767 98.4643 29.5267 98.6309 29.1C98.7976 28.6667 99.0309 28.2833 99.3309 27.95C99.6376 27.61 99.9943 27.3433 100.401 27.15C100.808 26.95 101.248 26.85 101.721 26.85C102.221 26.85 102.674 26.9533 103.081 27.16C103.488 27.3667 103.834 27.6433 104.121 27.99C104.414 28.3367 104.641 28.7233 104.801 29.15C104.961 29.5767 105.041 30.0133 105.041 30.46C105.041 30.9333 104.958 31.3867 104.791 31.82C104.624 32.2467 104.391 32.63 104.091 32.97C103.791 33.3033 103.438 33.5667 103.031 33.76C102.624 33.9533 102.184 34.05 101.711 34.05ZM99.0809 30.45C99.0809 30.8367 99.1443 31.21 99.2709 31.57C99.3976 31.9233 99.5776 32.24 99.8109 32.52C100.044 32.7933 100.321 33.0133 100.641 33.18C100.968 33.34 101.324 33.42 101.711 33.42C102.118 33.42 102.481 33.3367 102.801 33.17C103.128 32.9967 103.404 32.77 103.631 32.49C103.864 32.2033 104.041 31.8833 104.161 31.53C104.281 31.1767 104.341 30.8167 104.341 30.45C104.341 30.0633 104.278 29.6933 104.151 29.34C104.024 28.9867 103.841 28.67 103.601 28.39C103.368 28.11 103.091 27.89 102.771 27.73C102.451 27.57 102.098 27.49 101.711 27.49C101.311 27.49 100.948 27.5733 100.621 27.74C100.301 27.9067 100.024 28.1333 99.7909 28.42C99.5643 28.7 99.3876 29.0167 99.2609 29.37C99.1409 29.7233 99.0809 30.0833 99.0809 30.45ZM111.361 28.19V34H110.661V26.9H111.241L115.901 32.82V26.91H116.601V34H115.951L111.361 28.19ZM126.835 28.23C126.735 28.1167 126.619 28.0167 126.485 27.93C126.352 27.8367 126.202 27.7567 126.035 27.69C125.869 27.6233 125.689 27.57 125.495 27.53C125.309 27.49 125.109 27.47 124.895 27.47C124.275 27.47 123.819 27.59 123.525 27.83C123.239 28.0633 123.095 28.3833 123.095 28.79C123.095 29.07 123.162 29.29 123.295 29.45C123.435 29.61 123.652 29.74 123.945 29.84C124.239 29.94 124.612 30.0433 125.065 30.15C125.572 30.2567 126.009 30.3833 126.375 30.53C126.742 30.6767 127.025 30.8767 127.225 31.13C127.425 31.3767 127.525 31.7133 127.525 32.14C127.525 32.4667 127.462 32.75 127.335 32.99C127.209 33.23 127.032 33.43 126.805 33.59C126.579 33.75 126.309 33.87 125.995 33.95C125.682 34.0233 125.339 34.06 124.965 34.06C124.599 34.06 124.245 34.0233 123.905 33.95C123.572 33.87 123.255 33.7567 122.955 33.61C122.655 33.4567 122.375 33.2633 122.115 33.03L122.465 32.46C122.592 32.5933 122.742 32.72 122.915 32.84C123.095 32.9533 123.292 33.0567 123.505 33.15C123.725 33.2433 123.959 33.3167 124.205 33.37C124.459 33.4167 124.719 33.44 124.985 33.44C125.552 33.44 125.992 33.3367 126.305 33.13C126.625 32.9233 126.785 32.6167 126.785 32.21C126.785 31.9167 126.705 31.6833 126.545 31.51C126.385 31.33 126.145 31.1833 125.825 31.07C125.505 30.9567 125.112 30.8467 124.645 30.74C124.152 30.6267 123.735 30.5 123.395 30.36C123.055 30.22 122.799 30.0367 122.625 29.81C122.459 29.5767 122.375 29.27 122.375 28.89C122.375 28.45 122.482 28.08 122.695 27.78C122.915 27.4733 123.215 27.2433 123.595 27.09C123.975 26.93 124.412 26.85 124.905 26.85C125.219 26.85 125.509 26.8833 125.775 26.95C126.049 27.01 126.299 27.1 126.525 27.22C126.759 27.34 126.975 27.49 127.175 27.67L126.835 28.23Z" fill="white"/>
</svg>
