<svg width="30" height="24" viewBox="0 0 30 24" fill="none" xmlns="http://www.w3.org/2000/svg">
<path d="M26.5727 5.98123C26.5915 6.24372 26.5915 6.50626 26.5915 6.76875C26.5915 14.775 20.484 24 9.32113 24C5.88207 24 2.68735 23.0062 0 21.2813C0.488625 21.3375 0.958392 21.3563 1.46582 21.3563C4.30345 21.3563 6.91566 20.4 9.00164 18.7688C6.33309 18.7125 4.09677 16.9688 3.32626 14.5687C3.70214 14.625 4.07797 14.6625 4.47265 14.6625C5.01762 14.6625 5.56264 14.5874 6.07001 14.4563C3.28872 13.8937 1.20268 11.4562 1.20268 8.51249V8.43752C2.01073 8.88752 2.95043 9.16877 3.94637 9.20622C2.31141 8.1187 1.24028 6.26247 1.24028 4.16246C1.24028 3.03748 1.5409 2.00623 2.06713 1.10622C5.05516 4.78122 9.54661 7.18118 14.583 7.44372C14.489 6.99372 14.4326 6.52502 14.4326 6.05626C14.4326 2.71872 17.1388 0 20.5026 0C22.2503 0 23.8289 0.731248 24.9377 1.9125C26.3095 1.65001 27.625 1.14374 28.7902 0.450003C28.3391 1.85628 27.3807 3.03754 26.1216 3.78748C27.3432 3.6563 28.5271 3.31872 29.617 2.85002C28.7903 4.04997 27.7566 5.11868 26.5727 5.98123Z" fill="#D9D9D9"/>
</svg>
